<svg xmlns="http://www.w3.org/2000/svg" viewBox="0 0 100 100" width="100" height="100">
    <path fill="none" stroke="#dbb86b" stroke-width="0.4" d="M20,20 L80,20 M20,30 L80,30 M20,40 L80,40 M20,50 L80,50 M20,60 L80,60 M20,70 L80,70 M20,80 L80,80 M30,20 L30,80 M40,20 L40,80 M50,20 L50,80 M60,20 L60,80 M70,20 L70,80"/>
    <circle cx="50" cy="50" r="12" stroke="#dbb86b" fill="none" stroke-width="0.5"/>
    <path fill="none" stroke="#dbb86b" stroke-width="0.3" d="M50,20 L50,80 M20,50 L80,50 M35,35 L65,65 M35,65 L65,35"/>
</svg>